<svg width="131" height="26" viewBox="0 0 131 26" fill="none" xmlns="http://www.w3.org/2000/svg">
<path d="M26.3564 15.7032C26.3561 16.1487 26.7194 16.51 27.1677 16.51H28.6374L35.8416 25.1632C35.9957 25.3484 36.2249 25.4556 36.4667 25.4556H39.1182C39.809 25.4556 40.1837 24.6525 39.7376 24.1284L33.1279 16.3649C36.6873 15.7151 39.0543 13.0184 39.0784 9.20362C39.0785 9.18403 39.0786 7.55186 39.0786 7.53221C39.0786 2.85182 35.7564 0.0581055 31.266 0.0581055H27.1695C26.7214 0.0581055 26.3582 0.419084 26.3582 0.864376V2.80747C26.3582 3.25277 26.7214 3.61374 27.1695 3.61374H30.6453C33.712 3.61374 34.9897 5.28271 34.9897 7.53221C34.9897 7.54734 34.9897 9.175 34.9896 9.19008C34.9719 11.3443 33.6906 12.9544 30.6453 12.9544H27.1689C26.7211 12.9544 26.358 13.315 26.3577 13.7601L26.3564 15.7032Z" fill="#262D3F"/>
<path d="M24.6153 0.806267C24.6153 0.360978 24.2521 0 23.804 0H21.6077C21.1596 0 20.7964 0.360979 20.7964 0.806267L20.7965 24.5911C20.7965 25.0364 21.1597 25.3974 21.6077 25.3974H23.7835C24.2308 25.3974 24.5938 25.0375 24.5948 24.5929L24.6153 15.4191V0.806267Z" fill="#33C723"/>
<path d="M20.3429 1.761C20.4589 1.33088 20.2021 0.888781 19.7693 0.77353L17.6478 0.208581C17.215 0.0933317 16.7702 0.348583 16.6542 0.7787L10.46 23.7532C10.344 24.1832 10.6008 24.6254 11.0336 24.7406L13.1353 25.3003C13.5674 25.4154 14.0117 25.1611 14.1285 24.7319L16.5373 15.876L20.3429 1.761Z" fill="#5EBCFF"/>
<path d="M15.3824 4.17056C15.6065 3.78493 15.4735 3.29183 15.0855 3.06918L13.1833 1.97778C12.7953 1.75514 12.2991 1.88727 12.0751 2.2729L0.108825 22.8713C-0.115202 23.2568 0.0177465 23.7499 0.405774 23.9726L2.29008 25.0538C2.67751 25.2761 3.17288 25.1448 3.39741 24.7603L8.03059 16.8256L15.3824 4.17056Z" fill="#37DEFF"/>
<path d="M47.9332 8.14941C42.53 8.14941 39.3174 12.0316 39.3174 17.1111C39.3174 22.4082 42.7491 26.0002 48.1157 26.0002C51.8335 26.0002 54.0072 24.1762 55.3136 22.5714C55.57 22.2564 55.5237 21.8013 55.227 21.5235L53.8909 20.2726C53.5374 19.9416 52.9767 19.9951 52.6575 20.3589C51.7383 21.4066 50.2833 22.5897 48.0427 22.5897C45.4399 22.5897 43.4912 20.9941 43.0286 18.4961C42.9446 18.043 43.3199 17.6553 43.7835 17.6553H55.4172C55.7398 17.6553 56.0013 17.3954 56.0013 17.0748C56.0013 11.6688 53.0807 8.14941 47.9332 8.14941ZM47.7141 11.4148C49.9408 11.4148 51.53 12.434 51.9987 14.2323C52.1161 14.6825 51.7359 15.0793 51.268 15.0793H44.0836C43.5784 15.0793 43.19 14.6204 43.3658 14.1496C44.0436 12.3342 45.634 11.4148 47.7141 11.4148Z" fill="#262D3F"/>
<path d="M62.5863 26.0002C66.5291 26.0002 69.1576 24.3312 69.1576 20.9207C69.1576 18.6712 67.9894 17.2199 65.7989 16.204L62.6593 14.7165C61.199 14.0271 60.7244 13.5192 60.7244 12.7209C60.7244 11.959 61.2355 11.4511 62.8053 11.4511C64.1491 11.4511 65.4441 11.8153 66.5704 12.2457C66.9783 12.4016 67.4432 12.2281 67.6292 11.8351L68.4043 10.1982C68.5975 9.79025 68.4172 9.30222 67.9936 9.14056C66.3829 8.52618 64.5812 8.14941 62.9148 8.14941C59.2276 8.14941 56.9276 9.81839 56.9276 12.9024C56.9276 14.8253 57.9133 16.5306 60.4688 17.7279L63.5355 19.2154C64.9592 19.9048 65.3243 20.4127 65.3243 21.1021C65.3243 22.1543 64.4116 22.6622 62.6958 22.6622C61.0029 22.6622 59.4657 22.1723 58.0842 21.4749C57.6681 21.2649 57.1516 21.4148 56.941 21.8286L56.0673 23.5455C55.8737 23.9258 56.0103 24.3926 56.3943 24.5824C58.2209 25.4853 60.4468 26.0002 62.5863 26.0002Z" fill="#262D3F"/>
<path d="M74.3448 2.59806C74.3448 1.39578 73.364 0.421143 72.1543 0.421143C70.9445 0.421143 69.9639 1.39578 69.9639 2.59806C69.9639 3.80034 70.9445 4.77498 72.1543 4.77498C73.364 4.77498 74.3448 3.80034 74.3448 2.59806ZM70.3655 24.6495C70.3655 25.0947 70.7287 25.4558 71.1767 25.4558H73.1319C73.58 25.4558 73.9432 25.0947 73.9432 24.6495V9.49974C73.9432 9.05444 73.58 8.69348 73.1319 8.69348H71.1767C70.7287 8.69348 70.3655 9.05444 70.3655 9.49974V24.6495Z" fill="#262D3F"/>
<path d="M79.5328 0.864376C79.5328 0.419084 79.1696 0.0581055 78.7215 0.0581055H76.7664C76.3184 0.0581055 75.9551 0.419084 75.9551 0.864376V24.6493C75.9551 25.0946 76.3184 25.4556 76.7664 25.4556H78.7215C79.1696 25.4556 79.5328 25.0946 79.5328 24.6493V0.864376Z" fill="#262D3F"/>
<path d="M85.523 2.59806C85.523 1.39578 84.5422 0.421143 83.3325 0.421143C82.1229 0.421143 81.1421 1.39578 81.1421 2.59806C81.1421 3.80034 82.1229 4.77498 83.3325 4.77498C84.5422 4.77498 85.523 3.80034 85.523 2.59806ZM81.5437 24.6495C81.5437 25.0947 81.9071 25.4558 82.3549 25.4558H84.3101C84.7588 25.4558 85.1214 25.0947 85.1214 24.6495V9.49974C85.1214 9.05444 84.7588 8.69348 84.3101 8.69348H82.3549C81.9071 8.69348 81.5437 9.05444 81.5437 9.49974V24.6495Z" fill="#262D3F"/>
<path d="M95.2823 8.14941C89.8792 8.14941 86.6665 12.0316 86.6665 17.1111C86.6665 22.4082 90.0982 26.0002 95.4648 26.0002C99.1829 26.0002 101.356 24.1762 102.663 22.5714C102.92 22.2564 102.873 21.8013 102.576 21.5235L101.24 20.2726C100.887 19.9416 100.326 19.9951 100.007 20.3589C99.088 21.4066 97.6325 22.5897 95.3918 22.5897C92.7892 22.5897 90.8405 20.9941 90.3781 18.4961C90.2937 18.043 90.6693 17.6553 91.1326 17.6553H102.766C103.089 17.6553 103.35 17.3954 103.35 17.0748C103.35 11.6688 100.43 8.14941 95.2823 8.14941ZM95.0632 11.4148C97.2902 11.4148 98.8795 12.434 99.3484 14.2323C99.4652 14.6825 99.0855 15.0793 98.6174 15.0793H91.4328C90.9281 15.0793 90.5395 14.6204 90.7156 14.1496C91.393 12.3342 92.9831 11.4148 95.0632 11.4148Z" fill="#262D3F"/>
<path d="M113.878 8.14941C111.297 8.14941 109.476 9.30109 108.379 11.2101C108.371 11.2244 108.356 11.2334 108.339 11.2334C108.314 11.2334 108.293 11.2129 108.293 11.1876V9.49991C108.293 9.05461 107.93 8.69364 107.481 8.69364H105.526C105.078 8.69364 104.715 9.05461 104.715 9.49991V24.6497C104.715 25.095 105.078 25.4559 105.526 25.4559H107.481C107.93 25.4559 108.293 25.095 108.293 24.6497V17.4376C108.293 13.2652 110.154 11.7051 112.783 11.7051C115.192 11.7051 116.653 12.9024 116.653 15.7686V24.6497C116.653 25.095 117.016 25.4559 117.464 25.4559H119.419C119.868 25.4559 120.231 25.095 120.231 24.6497V15.1518C120.231 10.0724 117.492 8.14941 113.878 8.14941Z" fill="#262D3F"/>
<path d="M129.958 11.7045C130.406 11.7045 130.769 11.3435 130.769 10.8982V9.49937C130.769 9.05407 130.406 8.69311 129.958 8.69311H127.337V2.78722C127.337 2.34194 126.974 1.98096 126.526 1.98096H124.571C124.122 1.98096 123.76 2.34194 123.76 2.78722V8.69311H121.577C121.129 8.69311 120.766 9.05407 120.766 9.49937V10.8982C120.766 11.3435 121.129 11.7045 121.577 11.7045H123.76V21.1741C123.76 23.9316 125.366 25.4917 128.323 25.4917H129.155C129.603 25.4917 129.966 25.1307 129.966 24.6854V23.0326C129.966 22.5873 129.603 22.2263 129.155 22.2263H129.09C127.849 22.2263 127.337 21.6821 127.337 20.4848V11.7045H129.958Z" fill="#262D3F"/>
</svg>
