<svg width="19" height="16" viewBox="0 0 19 16" fill="none" xmlns="http://www.w3.org/2000/svg">
<path d="M2.28513 3.072C2.30813 2.84 2.22013 2.609 2.04513 2.453L0.275133 0.32V0H5.77313L10.0231 9.32L13.7591 0H19.0001V0.319L17.4851 1.77C17.3551 1.87 17.2921 2.034 17.3171 2.195V12.861C17.2921 13.023 17.3551 13.186 17.4851 13.286L18.9641 14.737V15.056H11.5281V14.737L13.0571 13.25C13.2091 13.1 13.2091 13.055 13.2091 12.826V4.204L8.95013 15.021H8.37513L3.41713 4.204V11.453C3.37613 11.758 3.47713 12.065 3.69213 12.286L5.68413 14.703V15.022H0.0361328V14.703L2.02813 12.286C2.24013 12.065 2.33613 11.756 2.28513 11.453V3.072Z" fill="#214359"/>
</svg>
